<svg width="48" height="35" viewBox="0 0 48 35" fill="none" xmlns="http://www.w3.org/2000/svg">
<path d="M8.22832 22.8001L7.39353 20.7827H4.61556L3.74948 22.8001H2.15527L5.40745 14.996H6.54832L9.82252 22.8001H8.22832ZM5.97904 17.0343L5.14426 19.3995H6.81266L5.97904 17.0343Z" fill="white"/>
<path d="M13.6671 22.938C12.9494 22.938 12.3999 22.727 11.8723 22.2516V24.7548H10.4683V16.9508H11.7564V17.6372C12.2109 17.1096 12.8868 16.814 13.6787 16.814C15.368 16.814 16.5935 18.0916 16.5935 19.8551C16.5923 21.6279 15.3564 22.938 13.6671 22.938ZM13.4978 18.1009C12.5262 18.1009 11.7865 18.8615 11.7865 19.8644C11.7865 20.8893 12.5262 21.6487 13.5187 21.6487C14.4486 21.6487 15.1767 20.8777 15.1767 19.8853C15.1767 18.8719 14.4486 18.1009 13.4978 18.1009Z" fill="white"/>
<path d="M20.6375 22.938C19.9198 22.938 19.3703 22.727 18.8427 22.2516V24.7548H17.4375V16.9508H18.7256V17.6372C19.1801 17.1096 19.8561 16.814 20.6479 16.814C22.3372 16.814 23.5627 18.0916 23.5627 19.8551C23.5627 21.6279 22.3268 22.938 20.6375 22.938ZM20.4682 18.1009C19.4966 18.1009 18.7569 18.8615 18.7569 19.8644C18.7569 20.8893 19.4966 21.6487 20.4891 21.6487C21.4189 21.6487 22.1471 20.8777 22.1471 19.8853C22.1471 18.8719 21.419 18.1009 20.4682 18.1009Z" fill="white"/>
<path d="M28.3986 22.938C26.0009 22.938 24.1528 21.1641 24.1528 18.8823C24.1528 16.6435 25.9801 14.8591 28.2607 14.8591C29.9615 14.8591 31.5662 15.8841 32.0728 17.2881H30.372C29.8862 16.6122 29.136 16.2528 28.2282 16.2528C26.6862 16.2528 25.6091 17.4354 25.6091 18.9032C25.6091 20.3919 26.7812 21.5432 28.3128 21.5432C29.3378 21.5432 30.1818 21.0365 30.605 20.1704H27.3737V18.8185H32.4751V19.0087C32.4751 21.1316 30.7012 22.938 28.3986 22.938Z" fill="white"/>
<path d="M33.2788 22.8001V14.996H34.6829V22.8001H33.2788Z" fill="white"/>
<path d="M39.7207 22.8V22.24C39.1932 22.7571 38.7491 22.9368 38.0419 22.9368C36.6796 22.9368 35.8135 22.1449 35.8135 20.0858V16.9495H37.2175V19.811C37.2175 21.3634 37.65 21.6487 38.3259 21.6487C38.8013 21.6487 39.1816 21.4481 39.3926 21.1095C39.5514 20.8452 39.6141 20.4869 39.6141 19.7055V16.9495H41.0181V22.8H39.7207Z" fill="white"/>
<path d="M47.9477 20.4985H43.4167C43.5859 21.2058 44.1981 21.6498 45.0329 21.6498C45.6138 21.6498 45.9628 21.491 46.321 21.069H47.8526C47.4619 22.2725 46.2468 22.938 45.0642 22.938C43.2799 22.938 41.8955 21.6069 41.8955 19.8968C41.8955 18.1751 43.2578 16.8127 44.9796 16.8127C46.7222 16.8127 47.9999 18.1438 47.9999 19.9594C47.9999 20.1704 47.9894 20.298 47.9477 20.4985ZM45.0004 18.1009C44.1657 18.1009 43.5964 18.5125 43.3738 19.2626H46.6155C46.437 18.5125 45.8665 18.1009 45.0004 18.1009Z" fill="white"/>
<path d="M33.2765 24.3548V24.6412C33.2765 29.4017 29.4029 33.2754 24.6423 33.2754H5.87478C3.42029 33.2754 1.42377 31.2788 1.42377 28.8243V10.058C1.42377 5.29739 5.29739 1.42377 10.058 1.42377H28.8255C31.28 1.42377 33.2765 3.42029 33.2765 5.87478V13.4099H34.6991V5.87478C34.6991 2.63536 32.0638 0 28.8243 0H10.058C4.51246 0 0 4.5113 0 10.058V28.8255C0 32.0649 2.63536 34.7003 5.87478 34.7003H24.6423C30.1878 34.7003 34.7003 30.189 34.7003 24.6423V24.3559H33.2765V24.3548Z" fill="white"/>
</svg>
