<svg width="18" height="18" viewBox="0 0 18 18" fill="none" xmlns="http://www.w3.org/2000/svg">
<path d="M16.9524 0.518098C16.2935 -0.140273 15.2281 -0.175746 14.5269 0.437344L6.77012 7.21874C3.73395 7.75508 1.83815 8.72177 0.979109 10.1718C-0.111754 12.0132 0.910133 13.9662 1.05874 14.5809C1.23005 15.2901 0.884434 15.5802 0.380469 16.0841C0.209539 16.2549 0.138312 16.5015 0.19175 16.7371C0.245187 16.9727 0.415871 17.1644 0.643754 17.2447C3.08623 18.1056 5.89128 18.5038 7.93186 16.9247C10.2577 15.1249 10.3385 11.6815 10.305 10.6276L17.0332 2.94325C17.6471 2.24209 17.6116 1.17686 16.9524 0.518098ZM7.06722 15.8155C5.93667 16.6877 4.27385 16.8276 2.11532 16.2345C2.68257 15.3525 2.32261 14.9459 2.88539 13.8899C3.26753 13.1728 3.82972 12.8242 4.60411 12.8242C4.99248 12.8242 5.3073 12.5094 5.3073 12.121C5.3073 11.7327 4.99248 11.4178 4.60411 11.4178C3.87054 11.4178 3.2219 11.6182 2.67624 12.0132C2.40983 12.2061 2.17161 12.4434 1.96391 12.7221C1.84448 12.1373 1.83509 11.4862 2.18912 10.8886C2.99107 9.53497 5.2963 8.92125 6.84658 8.63374L8.89841 10.6841C8.92094 11.5443 8.85538 14.4359 7.06722 15.8155ZM15.9751 2.01684L9.55368 9.35065C9.52014 9.31715 9.64182 9.43871 8.11389 7.91195L15.4525 1.49611C15.5987 1.36835 15.821 1.37563 15.9583 1.51295V1.51298C16.0952 1.64981 16.1026 1.87116 15.9751 2.01684Z" fill="#15466B"/>
</svg>
