<svg width="19" height="10" viewBox="0 0 19 10" fill="none" xmlns="http://www.w3.org/2000/svg">
<path d="M16.3979 0.265625H2.6167C1.45359 0.265625 0.507324 1.21189 0.507324 2.375V7.625C0.507324 8.78811 1.45359 9.73438 2.6167 9.73438H16.3979C17.5611 9.73438 18.5073 8.78811 18.5073 7.625V2.375C18.5073 1.21189 17.5611 0.265625 16.3979 0.265625ZM17.1011 7.625C17.1011 8.0127 16.7857 8.32812 16.3979 8.32812H2.6167C2.229 8.32812 1.91357 8.0127 1.91357 7.625V2.375C1.91357 1.9873 2.229 1.67188 2.6167 1.67188H16.3979C16.7857 1.67188 17.1011 1.9873 17.1011 2.375V7.625Z" fill="#677C95"/>
<path d="M17.1011 7.625C17.1011 8.0127 16.7857 8.32812 16.3979 8.32812H2.6167C2.229 8.32812 1.91357 8.0127 1.91357 7.625V2.375C1.91357 1.9873 2.229 1.67188 2.6167 1.67188H16.3979C16.7857 1.67188 17.1011 1.9873 17.1011 2.375V7.625Z" fill="#677C95"/>
<path d="M7.24829 4.29688H11.7663C12.1546 4.29688 12.4694 4.61167 12.4694 5C12.4694 5.38833 12.1546 5.70312 11.7663 5.70312H7.24829C6.85997 5.70312 6.54517 5.38833 6.54517 5C6.54517 4.61167 6.85997 4.29688 7.24829 4.29688Z" fill="white"/>
</svg>
