<svg width="19" height="12" viewBox="0 0 19 12" fill="none" xmlns="http://www.w3.org/2000/svg">
<path d="M0.284179 2.31445L0.28418 9.3457C0.28418 10.5088 1.23045 11.4551 2.39355 11.4551C2.97732 11.4551 15.6552 11.4551 16.1748 11.4551C17.3379 11.4551 18.2842 10.5088 18.2842 9.3457L18.2842 2.31445C18.2842 1.15134 17.3379 0.205077 16.1748 0.205077C15.8277 0.205077 2.76421 0.205078 2.39355 0.205078C1.23044 0.205078 0.284179 1.15134 0.284179 2.31445ZM16.1748 1.61133C16.5625 1.61133 16.8779 1.92675 16.8779 2.31445L16.8779 9.3457C16.8779 9.73341 16.5625 10.0488 16.1748 10.0488L13.6084 10.0488L13.6084 1.61133L16.1748 1.61133ZM12.2021 1.61133L12.2021 10.0488L4.3623 10.0488L4.3623 1.61133L12.2021 1.61133ZM2.95605 1.61133L2.95605 10.0488L2.39355 10.0488C2.00585 10.0488 1.69043 9.73341 1.69043 9.3457L1.69043 2.31445C1.69043 1.92675 2.00585 1.61133 2.39355 1.61133L2.95605 1.61133Z" fill="#677C95"/>
</svg>
