<svg width="19" height="19" viewBox="0 0 19 19" fill="none" xmlns="http://www.w3.org/2000/svg">
<path d="M0.015014 2.61362L0.0150146 16.3949C0.0150146 17.558 0.96128 18.5042 2.12439 18.5042L5.88984 18.5042C7.05295 18.5042 7.99921 17.558 7.99921 16.3949L7.99921 2.61362C7.99921 1.45051 7.05295 0.504242 5.88984 0.504242L2.12439 0.504242C0.96128 0.504242 0.0150139 1.45051 0.015014 2.61362ZM5.88984 1.91049C6.27754 1.91049 6.59296 2.22591 6.59296 2.61362L6.59296 16.3949C6.59296 16.7826 6.27754 17.098 5.88984 17.098L2.12439 17.098C1.73669 17.098 1.42126 16.7826 1.42126 16.3949L1.42126 2.61362C1.42126 2.22591 1.73669 1.91049 2.12439 1.91049L5.88984 1.91049Z" fill="#677C95"/>
<path d="M10.0308 2.61362L10.0308 16.3949C10.0308 17.558 10.977 18.5042 12.1401 18.5042L15.9056 18.5042C17.0687 18.5042 18.015 17.558 18.015 16.3949L18.015 2.61362C18.015 1.45051 17.0687 0.504242 15.9056 0.504242L12.1401 0.504242C10.977 0.504242 10.0308 1.45051 10.0308 2.61362ZM15.9056 1.91049C16.2933 1.91049 16.6087 2.22591 16.6087 2.61362L16.6087 16.3949C16.6087 16.7826 16.2933 17.098 15.9056 17.098L12.1401 17.098C11.7524 17.098 11.437 16.7826 11.437 16.3949L11.437 2.61362C11.437 2.22591 11.7524 1.91049 12.1401 1.91049L15.9056 1.91049Z" fill="#677C95"/>
</svg>
