<svg width="19" height="18" viewBox="0 0 19 18" fill="none" xmlns="http://www.w3.org/2000/svg">
<g opacity="0.6" clip-path="url(#clip0)">
<path d="M5.39062 4.49764L3.63316 10.2052C3.622 10.2387 3.62758 10.2722 3.6499 10.3056C3.67222 10.3279 3.70011 10.3391 3.73359 10.3391H7.08113C7.11461 10.3391 7.1425 10.3279 7.16482 10.3056C7.18714 10.2722 7.19272 10.2387 7.18156 10.2052L5.4241 4.49764C5.4241 4.48648 5.41852 4.4809 5.40736 4.4809C5.3962 4.4809 5.39062 4.48648 5.39062 4.49764ZM1.20619 15.0257C0.971863 15.0257 0.782169 14.9308 0.637108 14.7411C0.503206 14.5514 0.47531 14.345 0.55342 14.1218L4.13529 3.71097C4.22456 3.44316 4.38636 3.22557 4.62069 3.05819C4.85502 2.89082 5.11166 2.80713 5.39062 2.80713H5.49105C5.78117 2.80713 6.03782 2.89082 6.26098 3.05819C6.49531 3.22557 6.65711 3.44316 6.74638 3.71097L10.3283 14.1218C10.4064 14.345 10.3729 14.5514 10.2278 14.7411C10.0939 14.9308 9.90981 15.0257 9.67548 15.0257H9.60853C9.32957 15.0257 9.07292 14.942 8.83859 14.7746C8.61543 14.6072 8.45921 14.3896 8.36994 14.1218L7.70043 11.9125C7.68927 11.8232 7.6279 11.7786 7.51631 11.7786H3.29841C3.19798 11.7786 3.13661 11.8232 3.11429 11.9125L2.44478 14.1218C2.36667 14.3896 2.21045 14.6072 1.97613 14.7746C1.75296 14.942 1.49631 15.0257 1.20619 15.0257Z" fill="#677C95"/>
<path d="M15.8322 10.6404C14.9172 10.6404 14.2254 10.7966 13.7567 11.109C13.2992 11.4103 13.0705 11.8232 13.0705 12.3476C13.0705 12.7605 13.1932 13.1008 13.4387 13.3686C13.6842 13.6364 13.9799 13.7703 14.3258 13.7703C15.0623 13.7703 15.6481 13.5416 16.0833 13.0841C16.5296 12.6154 16.7528 11.9794 16.7528 11.176V10.7743C16.7528 10.685 16.7026 10.6404 16.6022 10.6404H15.8322ZM13.9074 15.193C13.1486 15.193 12.5237 14.9476 12.0328 14.4566C11.5529 13.9656 11.313 13.3184 11.313 12.515C11.313 11.5331 11.6868 10.7743 12.4345 10.2387C13.1821 9.69191 14.3147 9.41853 15.8322 9.41853H16.6022C16.7026 9.41853 16.7528 9.36832 16.7528 9.26789V9.08378C16.7528 8.49238 16.6133 8.07951 16.3343 7.84518C16.0554 7.61086 15.5533 7.49369 14.828 7.49369C14.1808 7.49369 13.4108 7.62759 12.5181 7.8954C12.3508 7.95119 12.189 7.92887 12.0328 7.82845C11.8877 7.71686 11.8152 7.5718 11.8152 7.39327C11.8152 7.1701 11.8821 6.96924 12.016 6.79071C12.1499 6.61217 12.3229 6.50059 12.5349 6.45595C13.3383 6.2551 14.1027 6.15467 14.828 6.15467C16.2339 6.15467 17.1991 6.40574 17.7236 6.90787C18.248 7.41 18.5103 8.33058 18.5103 9.6696V14.2055C18.5103 14.4287 18.4266 14.624 18.2592 14.7913C18.103 14.9476 17.9133 15.0257 17.6901 15.0257C17.4669 15.0257 17.2717 14.9476 17.1043 14.7913C16.9481 14.624 16.8644 14.4287 16.8532 14.2055L16.8365 13.7871C16.8365 13.7759 16.8309 13.7703 16.8197 13.7703C16.7974 13.7703 16.7863 13.7759 16.7863 13.7871C16.1391 14.7244 15.1794 15.193 13.9074 15.193Z" fill="#677C95"/>
</g>
<defs>
<clipPath id="clip0">
<rect width="18" height="18" fill="white" transform="translate(0.510254)"/>
</clipPath>
</defs>
</svg>
