<svg width="24" height="20" viewBox="0 0 24 20" fill="none" xmlns="http://www.w3.org/2000/svg">
<rect x="0.5" y="0.5" width="23" height="19" rx="2.5" stroke="#1D6295"/>
<path d="M8.67278 7.338C9.18878 7.338 9.57278 7.494 9.82478 7.806C10.0768 8.112 10.2028 8.58 10.2028 9.21V12H9.07778V9.246C9.07778 8.886 9.01778 8.628 8.89778 8.472C8.78378 8.31 8.59178 8.229 8.32178 8.229C8.00978 8.229 7.76378 8.34 7.58378 8.562C7.40978 8.778 7.32278 9.078 7.32278 9.462V12H6.19778V9.246C6.19778 8.892 6.13478 8.634 6.00878 8.472C5.88878 8.31 5.69678 8.229 5.43278 8.229C5.12078 8.229 4.87478 8.34 4.69478 8.562C4.51478 8.778 4.42478 9.078 4.42478 9.462V12H3.30878V8.742C3.30878 8.262 3.28478 7.833 3.23678 7.455H4.28978L4.37078 8.175C4.50278 7.905 4.69178 7.698 4.93778 7.554C5.18978 7.41 5.47778 7.338 5.80178 7.338C6.49778 7.338 6.95078 7.626 7.16078 8.202C7.30478 7.932 7.50878 7.722 7.77278 7.572C8.04278 7.416 8.34278 7.338 8.67278 7.338ZM15.7505 7.455V12H14.6435V11.271C14.5055 11.523 14.3075 11.721 14.0495 11.865C13.7915 12.003 13.4975 12.072 13.1675 12.072C12.7715 12.072 12.4205 11.976 12.1145 11.784C11.8085 11.592 11.5715 11.319 11.4035 10.965C11.2355 10.611 11.1515 10.2 11.1515 9.732C11.1515 9.264 11.2355 8.85 11.4035 8.49C11.5775 8.124 11.8175 7.842 12.1235 7.644C12.4295 7.44 12.7775 7.338 13.1675 7.338C13.4975 7.338 13.7915 7.41 14.0495 7.554C14.3075 7.692 14.5055 7.887 14.6435 8.139V7.455H15.7505ZM13.4735 11.19C13.8455 11.19 14.1335 11.061 14.3375 10.803C14.5415 10.545 14.6435 10.182 14.6435 9.714C14.6435 9.234 14.5415 8.865 14.3375 8.607C14.1335 8.349 13.8425 8.22 13.4645 8.22C13.0925 8.22 12.8015 8.355 12.5915 8.625C12.3875 8.889 12.2855 9.258 12.2855 9.732C12.2855 10.2 12.3875 10.56 12.5915 10.812C12.8015 11.064 13.0955 11.19 13.4735 11.19ZM21.3948 12H20.0538L18.8298 10.461L17.6058 12H16.2738L18.1818 9.66L16.3908 7.455H17.7228L18.8298 8.868L19.9368 7.455H21.2778L19.4868 9.66L21.3948 12Z" fill="#1D6295"/>
</svg>
