<svg width="24" height="20" viewBox="0 0 24 20" fill="none" xmlns="http://www.w3.org/2000/svg">
<path d="M11.0207 7.784C11.7087 7.784 12.2207 7.992 12.5567 8.408C12.8927 8.816 13.0607 9.44 13.0607 10.28V14H11.5607V10.328C11.5607 9.848 11.4807 9.504 11.3207 9.296C11.1687 9.08 10.9127 8.972 10.5527 8.972C10.1367 8.972 9.80873 9.12 9.56873 9.416C9.33673 9.704 9.22073 10.104 9.22073 10.616V14H7.72073V10.328C7.72073 9.856 7.63673 9.512 7.46873 9.296C7.30873 9.08 7.05273 8.972 6.70073 8.972C6.28473 8.972 5.95673 9.12 5.71673 9.416C5.47673 9.704 5.35673 10.104 5.35673 10.616V14H3.86873V9.656C3.86873 9.016 3.83673 8.444 3.77273 7.94H5.17673L5.28473 8.9C5.46073 8.54 5.71273 8.264 6.04073 8.072C6.37673 7.88 6.76073 7.784 7.19273 7.784C8.12073 7.784 8.72473 8.168 9.00473 8.936C9.19673 8.576 9.46873 8.296 9.82073 8.096C10.1807 7.888 10.5807 7.784 11.0207 7.784ZM17.4097 14.096C16.7937 14.096 16.2497 13.968 15.7777 13.712C15.3137 13.456 14.9537 13.092 14.6977 12.62C14.4497 12.14 14.3257 11.58 14.3257 10.94C14.3257 10.3 14.4497 9.744 14.6977 9.272C14.9537 8.792 15.3137 8.424 15.7777 8.168C16.2497 7.912 16.7937 7.784 17.4097 7.784C18.0177 7.784 18.5537 7.912 19.0177 8.168C19.4817 8.424 19.8377 8.792 20.0857 9.272C20.3417 9.744 20.4697 10.3 20.4697 10.94C20.4697 11.58 20.3417 12.14 20.0857 12.62C19.8377 13.092 19.4817 13.456 19.0177 13.712C18.5537 13.968 18.0177 14.096 17.4097 14.096ZM17.3977 12.92C17.9097 12.92 18.2977 12.756 18.5617 12.428C18.8337 12.092 18.9697 11.596 18.9697 10.94C18.9697 10.292 18.8337 9.8 18.5617 9.464C18.2897 9.12 17.9057 8.948 17.4097 8.948C16.9057 8.948 16.5177 9.12 16.2457 9.464C15.9737 9.8 15.8377 10.292 15.8377 10.94C15.8377 11.596 15.9697 12.092 16.2337 12.428C16.5057 12.756 16.8937 12.92 17.3977 12.92Z" fill="#1D6295"/>
<rect x="0.5" y="0.5" width="23" height="19" rx="2.5" stroke="#1D6295"/>
</svg>
