<svg width="20" height="20" viewBox="0 0 20 20" fill="none" xmlns="http://www.w3.org/2000/svg">
<g clip-path="url(#clip0)">
<path d="M12.7777 2.55998L10.3816 0.163927C10.273 0.0553112 10.1281 -0.000297593 9.97837 2.76044e-05C9.82585 -0.00143578 9.67773 0.0553112 9.56911 0.163927L7.22249 2.51055C7.00266 2.73038 7.00266 3.08778 7.22249 3.30745L7.52509 3.61004C7.73728 3.82223 8.10768 3.82223 8.32003 3.61004L9.21839 2.70973V6.01813C9.21839 6.02821 9.22424 6.0365 9.22603 6.04593C9.25042 6.33422 9.4922 6.56235 9.78699 6.56235H10.2146C10.5254 6.56235 10.7808 6.30999 10.7808 5.99927V5.62984C10.7808 5.62822 10.7808 5.62708 10.7808 5.62578V2.75884L11.6795 3.65931C11.8993 3.87914 12.2559 3.87914 12.4756 3.65931L12.7777 3.35704C12.9975 3.13704 12.9975 2.77949 12.7777 2.55998Z" fill="#B8C0CC"/>
<path d="M12.7775 16.6435L12.4751 16.3404C12.2629 16.1279 11.8924 16.1279 11.6798 16.3404L10.7812 17.2408V14.3866C10.7812 14.385 10.7812 14.384 10.7812 14.3825V14.0131C10.7812 13.7022 10.5256 13.4375 10.2152 13.4375H9.7872C9.49273 13.4375 9.25095 13.6715 9.22639 13.9601C9.22461 13.9697 9.21875 13.9843 9.21875 13.9942V17.2903L8.3204 16.39C8.10804 16.1776 7.73683 16.1776 7.52448 16.39L7.22205 16.6926C7.00254 16.9122 7.00286 17.2698 7.2227 17.4896L9.56948 19.8361C9.67533 19.9423 9.81663 20 9.96248 20H9.98361C10.1347 20 10.2756 19.9424 10.3817 19.8361L12.7775 17.4402C12.9974 17.2205 12.9974 16.8631 12.7775 16.6435Z" fill="#B8C0CC"/>
<path d="M5.98579 9.21873H5.93766H5.61458C5.61344 9.21873 5.6123 9.21873 5.611 9.21873H2.7704L3.67087 8.32313C3.77705 8.21712 3.83542 8.07793 3.83542 7.9272C3.83542 7.77631 3.77705 7.63599 3.67087 7.53014L3.36828 7.22819C3.14845 7.00836 2.79089 7.00868 2.57138 7.22851L0.175328 9.62441C0.0667125 9.73287 0.00866478 9.87839 0.0115916 10.0277C0.00850218 10.1829 0.0667125 10.3283 0.175328 10.4369L2.52195 12.7837C2.63187 12.8936 2.77609 12.9486 2.92048 12.9486C3.06487 12.9486 3.20909 12.8936 3.31901 12.7837L3.62144 12.4813C3.72762 12.3753 3.78616 12.2336 3.78616 12.0829C3.78616 11.932 3.72778 11.7889 3.62144 11.6831L2.7213 10.7813H6.00286C6.01278 10.7813 6.02904 10.7789 6.03847 10.7771C6.32692 10.7527 6.56253 10.5142 6.56253 10.2195V9.79124C6.56253 9.48084 6.29652 9.21873 5.98579 9.21873Z" fill="#B8C0CC"/>
<path d="M19.8245 9.62433L17.4285 7.2286C17.2088 7.00876 16.8513 7.00876 16.6316 7.2286L16.3293 7.53119C16.2231 7.63704 16.1646 7.77867 16.1646 7.9294C16.1646 8.08029 16.223 8.21687 16.3293 8.32289L17.2296 9.21848H14.3708C14.3694 9.21848 14.3682 9.21848 14.3669 9.21848H13.9977C13.6869 9.21848 13.4375 9.48043 13.4375 9.79099V10.2193C13.4375 10.5139 13.6637 10.7521 13.9523 10.7767C13.9619 10.7786 13.9689 10.7811 13.9786 10.7811H17.2789L16.3783 11.6827C16.2722 11.7885 16.2137 11.9313 16.2137 12.0817C16.2137 12.2327 16.2721 12.3747 16.3783 12.4807L16.681 12.7833C16.7908 12.8932 16.935 12.9483 17.0794 12.9483C17.2238 12.9483 17.3678 12.8934 17.4777 12.7835L19.8247 10.4367C19.933 10.3284 19.991 10.1829 19.9884 10.0334C19.9909 9.87815 19.9328 9.73262 19.8245 9.62433Z" fill="#B8C0CC"/>
<path d="M10.0002 8.43652C9.1383 8.43652 8.43701 9.13781 8.43701 9.99992C8.43701 10.8619 9.1383 11.5633 10.0002 11.5633C10.8622 11.5633 11.5636 10.8619 11.5636 9.99992C11.5636 9.13781 10.8622 8.43652 10.0002 8.43652Z" fill="#B8C0CC"/>
</g>
<defs>
<clipPath id="clip0">
<rect width="20" height="20" fill="white"/>
</clipPath>
</defs>
</svg>
