<svg width="16" height="16" viewBox="0 0 16 16" fill="none" xmlns="http://www.w3.org/2000/svg">
<g filter="url(#filter0_d)">
<path d="M4.00003 2.14995C4.48003 1.96995 5.43003 2.07995 5.68003 2.61995C5.93003 3.15995 6.08003 3.85995 6.09003 3.68995C6.07089 3.17325 6.11455 2.65613 6.22003 2.14995C6.33117 1.82577 6.58584 1.5711 6.91003 1.45995C7.20734 1.36592 7.52301 1.34533 7.83003 1.39995C8.14044 1.46385 8.41537 1.64238 8.60003 1.89995C8.83397 2.48308 8.9659 3.1021 8.99003 3.72995C9.0149 3.19421 9.10558 2.66355 9.26003 2.14995C9.42713 1.9145 9.67116 1.74474 9.95003 1.66995C10.2806 1.60951 10.6194 1.60951 10.95 1.66995C11.2214 1.76001 11.4587 1.93101 11.63 2.15995C11.8424 2.6901 11.9706 3.2502 12.01 3.81995C12.01 3.95995 12.08 3.42995 12.3 3.07995C12.4768 2.55528 13.0454 2.27322 13.57 2.44995C14.0947 2.62668 14.3768 3.19528 14.2 3.71995C14.2 4.36995 14.2 4.33995 14.2 4.77995C14.2 5.21995 14.2 5.60995 14.2 5.97995C14.164 6.56517 14.0838 7.14683 13.96 7.71995C13.7865 8.22726 13.5442 8.7084 13.24 9.14995C12.7546 9.69001 12.3534 10.3002 12.05 10.96C11.976 11.288 11.9424 11.6238 11.95 11.96C11.949 12.2706 11.9894 12.58 12.07 12.88C11.6612 12.9236 11.2489 12.9236 10.84 12.88C10.45 12.82 9.97003 12.04 9.84003 11.8C9.7757 11.6711 9.64405 11.5897 9.50003 11.5897C9.356 11.5897 9.22435 11.6711 9.16003 11.8C8.94003 12.18 8.45003 12.87 8.16003 12.91C7.49003 12.99 6.10003 12.91 5.02003 12.91C5.02003 12.91 5.21003 11.91 4.79003 11.55C4.37003 11.19 3.96003 10.7699 3.65003 10.49L2.82003 9.56995C2.23472 9.02663 1.80641 8.33581 1.58003 7.56995C1.37003 6.62995 1.39003 6.17995 1.58003 5.79995C1.77381 5.48616 2.07642 5.25475 2.43003 5.14995C2.7238 5.09666 3.02621 5.11728 3.31003 5.20995C3.50629 5.29212 3.67592 5.42712 3.80003 5.59995C4.03003 5.90995 4.11003 6.05995 4.01003 5.71995C3.91003 5.37995 3.69003 5.12995 3.58003 4.71995C3.36588 4.23575 3.23731 3.71808 3.20003 3.18995C3.24101 2.71612 3.57185 2.31751 4.03003 2.18995" fill="white"/>
<path fill-rule="evenodd" clip-rule="evenodd" d="M4.00003 2.14995C4.48003 1.96995 5.43003 2.07995 5.68003 2.61995C5.93003 3.15995 6.08003 3.85995 6.09003 3.68995C6.07089 3.17325 6.11455 2.65613 6.22003 2.14995C6.33117 1.82577 6.58584 1.5711 6.91003 1.45995C7.20734 1.36592 7.52301 1.34533 7.83003 1.39995C8.14044 1.46385 8.41537 1.64238 8.60003 1.89995C8.83397 2.48308 8.9659 3.1021 8.99003 3.72995C9.0149 3.19421 9.10558 2.66355 9.26003 2.14995C9.42713 1.9145 9.67116 1.74474 9.95003 1.66995C10.2806 1.60951 10.6194 1.60951 10.95 1.66995C11.2214 1.76001 11.4587 1.93101 11.63 2.15995C11.8424 2.6901 11.9706 3.2502 12.01 3.81995C12.01 3.95995 12.08 3.42995 12.3 3.07995C12.4768 2.55528 13.0454 2.27322 13.57 2.44995C14.0947 2.62668 14.3768 3.19528 14.2 3.71995C14.2 4.36995 14.2 4.33995 14.2 4.77995C14.2 5.21995 14.2 5.60995 14.2 5.97995C14.164 6.56517 14.0838 7.14683 13.96 7.71995C13.7865 8.22726 13.5442 8.7084 13.24 9.14995C12.7546 9.69001 12.3534 10.3002 12.05 10.96C11.976 11.288 11.9424 11.6238 11.95 11.96C11.949 12.2706 11.9894 12.58 12.07 12.88C11.6612 12.9236 11.2489 12.9236 10.84 12.88C10.45 12.82 9.97003 12.04 9.84003 11.8C9.7757 11.6711 9.64405 11.5897 9.50003 11.5897C9.356 11.5897 9.22435 11.6711 9.16003 11.8C8.94003 12.18 8.45003 12.87 8.16003 12.91C7.49003 12.99 6.10003 12.91 5.02003 12.91C5.02003 12.91 5.21003 11.91 4.79003 11.55C4.37003 11.19 3.96003 10.77 3.65003 10.49L2.82003 9.56995C2.23472 9.02663 1.80641 8.33581 1.58003 7.56995C1.37003 6.62995 1.39003 6.17995 1.58003 5.79995C1.77381 5.48616 2.07642 5.25475 2.43003 5.14995C2.7238 5.09666 3.02621 5.11728 3.31003 5.20995C3.50629 5.29212 3.67592 5.42712 3.80003 5.59995C4.03003 5.90995 4.11003 6.05995 4.01003 5.71995C3.91003 5.37995 3.69003 5.12995 3.58003 4.71995C3.36588 4.23575 3.23731 3.71808 3.20003 3.18995C3.22047 2.70919 3.54059 2.29303 4.00003 2.14995Z" stroke="black" stroke-width="0.75" stroke-linejoin="round"/>
<path d="M11.75 9.82589V6.37411C11.75 6.16749 11.5821 6 11.375 6C11.1679 6 11 6.16749 11 6.37411V9.82589C11 10.0325 11.1679 10.2 11.375 10.2C11.5821 10.2 11.75 10.0325 11.75 9.82589Z" fill="black"/>
<path d="M9.76999 9.82463L9.74999 6.37107C9.7488 6.16495 9.57994 5.99882 9.37284 6.00001C9.16574 6.00119 8.99881 6.16925 9.00001 6.37537L9.02001 9.82893C9.0212 10.035 9.19006 10.2012 9.39716 10.2C9.60426 10.1988 9.77119 10.0307 9.76999 9.82463Z" fill="black"/>
<path d="M7.00001 6.37991L7.02001 9.82451C7.02122 10.0331 7.19009 10.2012 7.39719 10.2C7.6043 10.1988 7.7712 10.0287 7.76999 9.82009L7.74999 6.37549C7.74878 6.1669 7.57991 5.99879 7.37281 6.00001C7.1657 6.00123 6.9988 6.17131 7.00001 6.37991Z" fill="black"/>
</g>
<defs>
<filter id="filter0_d" x="0.254932" y="0.995117" width="15.1729" height="14.1254" filterUnits="userSpaceOnUse" color-interpolation-filters="sRGB">
<feFlood flood-opacity="0" result="BackgroundImageFix"/>
<feColorMatrix in="SourceAlpha" type="matrix" values="0 0 0 0 0 0 0 0 0 0 0 0 0 0 0 0 0 0 127 0"/>
<feOffset dy="1"/>
<feGaussianBlur stdDeviation="0.4"/>
<feColorMatrix type="matrix" values="0 0 0 0 0 0 0 0 0 0 0 0 0 0 0 0 0 0 0.5 0"/>
<feBlend mode="normal" in2="BackgroundImageFix" result="effect1_dropShadow"/>
<feBlend mode="normal" in="SourceGraphic" in2="effect1_dropShadow" result="shape"/>
</filter>
</defs>
</svg>
