<svg width="19" height="16" viewBox="0 0 19 16" fill="none" xmlns="http://www.w3.org/2000/svg">
<path d="M12.5522 3.96477L14.2764 4.95889C14.6147 5.15393 15.0439 5.03553 15.2367 4.70098C15.4307 4.36457 15.3152 3.93461 14.9788 3.74065L13.2546 2.74654C12.9182 2.55254 12.4882 2.66803 12.2943 3.00444C12.1003 3.34085 12.2158 3.77081 12.5522 3.96477Z" fill="#677C95"/>
<path d="M8.59791 2.86052L9.61723 2.27281L10.6365 2.86052C10.9747 3.05553 11.404 2.93719 11.5969 2.60261C11.7909 2.2662 11.6753 1.83624 11.339 1.64228L9.96844 0.852078C9.75103 0.726747 9.48339 0.726747 9.26601 0.852078L7.89548 1.64228C7.55911 1.83624 7.44359 2.2662 7.63758 2.60261C7.83146 2.93902 8.26143 3.05447 8.59791 2.86052Z" fill="#677C95"/>
<path d="M16.1923 6.06438L16.5065 6.24551L16.1924 6.42663C15.856 6.62063 15.7405 7.05059 15.9345 7.38696C16.1278 7.72229 16.5575 7.83943 16.8948 7.64484L18.2653 6.85456C18.4831 6.72901 18.6172 6.49677 18.6172 6.24544C18.6172 5.9941 18.4831 5.76186 18.2653 5.63632L16.8948 4.84611C16.5584 4.65212 16.1284 4.7676 15.9344 5.10402C15.7405 5.44046 15.856 5.87042 16.1923 6.06438Z" fill="#677C95"/>
<path d="M4.95777 4.95893L6.68196 3.96482C7.01834 3.77086 7.13386 3.3409 6.93987 3.00449C6.74588 2.66808 6.31602 2.55259 5.97954 2.74659L4.25535 3.7407C3.91897 3.93466 3.80345 4.36462 3.99744 4.70103C4.19045 5.03579 4.61977 5.15377 4.95777 4.95893Z" fill="#677C95"/>
<path d="M18.2653 9.14608L15.2211 7.39072C15.0038 7.26535 14.736 7.26539 14.5187 7.39072L12.5523 8.52451C12.2159 8.7185 12.1004 9.14847 12.2944 9.48484C12.4883 9.82122 12.9183 9.93671 13.2547 9.74275L14.8698 8.81146L16.5064 9.75516L9.61719 13.7273L2.72793 9.75516L4.36449 8.81146L5.97964 9.74275C6.31605 9.93674 6.74605 9.82122 6.93997 9.48484C7.13396 9.14843 7.01847 8.71847 6.68206 8.52451L4.71567 7.39072C4.49826 7.26539 4.23055 7.26539 4.01325 7.39072L0.969066 9.14608C0.751309 9.27165 0.617188 9.50386 0.617188 9.75523C0.617188 10.0066 0.751344 10.2388 0.969102 10.3643L9.26598 15.1481C9.48331 15.2734 9.75103 15.2734 9.9684 15.1481L18.2653 10.3643C18.483 10.2388 18.6172 10.0066 18.6172 9.75523C18.6172 9.50386 18.4831 9.27165 18.2653 9.14608Z" fill="#677C95"/>
<path d="M0.969102 6.85461L2.3396 7.64489C2.67745 7.83976 3.10681 7.72192 3.29993 7.38702C3.49392 7.05061 3.37843 6.62065 3.04202 6.42669L2.7279 6.24557L3.04205 6.06444C3.37843 5.87049 3.49395 5.44052 3.29996 5.10411C3.106 4.7677 2.67611 4.65222 2.33963 4.84621L0.969102 5.63638C0.751344 5.76192 0.617188 5.99413 0.617188 6.24546C0.617188 6.49679 0.751309 6.72904 0.969102 6.85461Z" fill="#677C95"/>
<path d="M10.6364 9.62975L9.61716 10.2175L8.59791 9.62975C8.2615 9.43576 7.83161 9.55129 7.63759 9.88766C7.44359 10.224 7.55908 10.654 7.89549 10.848L9.26599 11.6382C9.48336 11.7636 9.75107 11.7636 9.96841 11.6382L11.3389 10.848C11.6753 10.654 11.7908 10.2241 11.5968 9.88766C11.4028 9.55121 10.9728 9.43576 10.6364 9.62975Z" fill="#677C95"/>
</svg>
