<svg width="22" height="22" viewBox="0 0 22 22" fill="none" xmlns="http://www.w3.org/2000/svg">
<g opacity="0.6">
<path d="M21.1406 10.1406H7.39062C6.91599 10.1406 6.53125 10.5254 6.53125 11C6.53125 11.4746 6.91599 11.8594 7.39062 11.8594H21.1406C21.6153 11.8594 22 11.4746 22 11C22 10.5254 21.6153 10.1406 21.1406 10.1406Z" fill="#677C95"/>
<path d="M21.1406 3.69531H7.39062C6.91599 3.69531 6.53125 4.08005 6.53125 4.55469C6.53125 5.02932 6.91599 5.41406 7.39062 5.41406H21.1406C21.6153 5.41406 22 5.02932 22 4.55469C22 4.08005 21.6153 3.69531 21.1406 3.69531Z" fill="#677C95"/>
<path d="M21.1406 16.5859H7.39062C6.91599 16.5859 6.53125 16.9707 6.53125 17.4453C6.53125 17.9199 6.91599 18.3047 7.39062 18.3047H21.1406C21.6153 18.3047 22 17.9199 22 17.4453C22 16.9707 21.6153 16.5859 21.1406 16.5859Z" fill="#677C95"/>
<path d="M0.25177 5.24051C-0.0839233 4.90498 -0.0839233 4.36082 0.25177 4.02513C0.587296 3.68961 1.13145 3.68961 1.46698 4.02513L2.02339 4.58154L3.86115 2.74396C4.19667 2.40826 4.74083 2.40826 5.07635 2.74396C5.41205 3.07965 5.41205 3.62364 5.07635 3.95934L2.63116 6.40453C2.29547 6.74022 1.75131 6.74005 1.41579 6.40453L0.25177 5.24051Z" fill="#677C95"/>
<path d="M3.86719 8.63672H0.859375C0.384705 8.63672 0 9.02142 0 9.49609V12.5039C0 12.9786 0.384705 13.3633 0.859375 13.3633H3.86719C4.34186 13.3633 4.72656 12.9786 4.72656 12.5039V9.49609C4.72656 9.02142 4.34186 8.63672 3.86719 8.63672ZM3.00781 11.6445H1.71875V10.3555H3.00781V11.6445Z" fill="#677C95"/>
<path d="M3.86719 15.082H0.859375C0.384705 15.082 0 15.4667 0 15.9414V18.9492C0 19.4239 0.384705 19.8086 0.859375 19.8086H3.86719C4.34186 19.8086 4.72656 19.4239 4.72656 18.9492V15.9414C4.72656 15.4667 4.34186 15.082 3.86719 15.082ZM3.00781 18.0898H1.71875V16.8008H3.00781V18.0898Z" fill="#677C95"/>
</g>
</svg>
