<svg width="16" height="20" viewBox="0 0 16 20" fill="none" xmlns="http://www.w3.org/2000/svg">
<path d="M14.1328 0C13.4112 0 2.48868 0 1.86719 0C1.00568 0 0.304688 0.700989 0.304688 1.5625V18.4375C0.304688 19.299 1.00568 20 1.86719 20H14.1328C14.9943 20 15.6953 19.299 15.6953 18.4375V1.5625C15.6953 0.700989 14.9943 0 14.1328 0ZM10.292 1.5625L10.2926 3.07281C10.2926 3.07281 10.2923 3.07297 10.2917 3.07297H5.70828V1.5625H10.292ZM14.1328 18.4375H1.86719V1.5625H4.14578V3.07297C4.14578 3.93448 4.84677 4.63547 5.70828 4.63547H10.2917C11.1532 4.63547 11.8542 3.93448 11.8542 3.07297V1.5625H14.1328L14.1337 18.4375C14.1337 18.4375 14.1336 18.4375 14.1328 18.4375ZM11.8542 13.073C11.8542 13.5045 11.5045 13.8542 11.073 13.8542H4.92703C4.49551 13.8542 4.14578 13.5045 4.14578 13.073C4.14578 12.6414 4.49551 12.2917 4.92703 12.2917H11.073C11.5045 12.2917 11.8542 12.6414 11.8542 13.073ZM11.8542 8.46359C11.8542 8.89511 11.5045 9.24484 11.073 9.24484H4.92703C4.49551 9.24484 4.14578 8.89511 4.14578 8.46359C4.14578 8.03207 4.49551 7.68234 4.92703 7.68234H11.073C11.5045 7.68234 11.8542 8.03207 11.8542 8.46359Z" fill="#677C95"/>
</svg>
