<svg width="14" height="28" viewBox="0 0 14 28" fill="none" xmlns="http://www.w3.org/2000/svg">
<path d="M11.9219 6.23438C11.6405 6.23438 11.3592 6.12648 11.1453 5.91084L7.77368 2.51136C7.56647 2.30251 7.29177 2.1875 7.00001 2.1875C6.70826 2.1875 6.43356 2.30251 6.22641 2.51136L2.85471 5.91084C2.42935 6.3397 1.7369 6.3426 1.30793 5.91719C0.879015 5.49183 0.876172 4.79927 1.30159 4.37041L4.67323 0.970922C5.29426 0.344805 6.12059 0 7.00001 0C7.87944 0 8.70577 0.344805 9.3268 0.970922L12.6984 4.37041C13.1238 4.79927 13.121 5.49183 12.6921 5.91719C12.4789 6.12872 12.2003 6.23438 11.9219 6.23438ZM9.3268 27.0291L12.6984 23.6296C13.1238 23.2007 13.121 22.5082 12.6921 22.0828C12.2631 21.6575 11.5707 21.6603 11.1453 22.0892L7.77368 25.4886C7.56647 25.6975 7.29177 25.8125 7.00001 25.8125C6.70826 25.8125 6.43356 25.6975 6.22641 25.4886L2.85471 22.0892C2.42935 21.6604 1.7369 21.6574 1.30793 22.0828C0.879015 22.5082 0.876172 23.2007 1.30159 23.6296L4.67323 27.0291C5.29426 27.6552 6.12059 28 7.00001 28C7.87944 28 8.70577 27.6552 9.3268 27.0291ZM10.7734 13.9453C10.7734 11.8345 9.05615 10.1172 6.94533 10.1172C4.8345 10.1172 3.11721 11.8345 3.11721 13.9453C3.11721 16.0561 4.8345 17.7734 6.94533 17.7734C9.05615 17.7734 10.7734 16.0561 10.7734 13.9453ZM8.58595 13.9453C8.58595 14.85 7.84997 15.5859 6.94533 15.5859C6.04069 15.5859 5.3047 14.85 5.3047 13.9453C5.3047 13.0407 6.04069 12.3047 6.94533 12.3047C7.84997 12.3047 8.58595 13.0407 8.58595 13.9453Z" fill="#F65C66"/>
</svg>
