<svg width="22" height="22" viewBox="0 0 22 22" fill="none" xmlns="http://www.w3.org/2000/svg">
<g opacity="0.8" clip-path="url(#clip0)">
<path d="M1.70575 7.41911H9.12619C9.56828 7.41911 9.92667 7.7775 9.92667 8.21959C9.92667 8.66168 9.56828 9.02007 9.12619 9.02007H1.70575C1.26366 9.02007 0.905273 8.66168 0.905273 8.21959C0.905273 7.7775 1.26366 7.41911 1.70575 7.41911Z" fill="#677C95"/>
<path d="M1.70575 12.5422H20.3037C20.7458 12.5422 21.1042 12.9006 21.1042 13.3427C21.1042 13.7848 20.7458 14.1431 20.3037 14.1431H1.70575C1.26366 14.1431 0.905273 13.7848 0.905273 13.3427C0.905273 12.9006 1.26366 12.5422 1.70575 12.5422Z" fill="#677C95"/>
</g>
<defs>
<clipPath id="clip0">
<rect width="20.4922" height="20.4922" fill="white" transform="translate(0.758789 0.535294)"/>
</clipPath>
</defs>
</svg>
