<svg width="24" height="20" viewBox="0 0 24 20" fill="none" xmlns="http://www.w3.org/2000/svg">
<rect x="0.5" y="0.5" width="23" height="19" rx="2.5" stroke="#1D6295"/>
<path d="M8.45281 14.6569C9.05049 14.3142 9.45527 13.7824 9.60764 13.221C9.72878 12.7774 9.69164 12.3173 9.46667 11.9193L11.5366 10.7353C12.9983 11.4681 16.2754 13.1129 16.792 13.408C17.4602 13.7904 18.2554 13.1062 18.2554 13.1062L12.8223 9.99961L18.2554 6.8939C18.2554 6.8939 17.4602 6.21011 16.7924 6.5921C16.2754 6.88756 12.9987 8.53286 11.537 9.26476L9.46709 8.08123C9.69206 7.6832 9.72921 7.22228 9.60807 6.77951C9.45569 6.21729 9.05091 5.68588 8.45324 5.34315C7.37818 4.72774 6.0887 4.96285 5.57164 5.86611C5.34161 6.26667 5.30488 6.73055 5.42602 7.17754C5.57924 7.73849 5.98402 8.27117 6.58043 8.61348C6.84382 8.76332 7.11944 8.86251 7.39337 8.91316L7.39295 8.91316C7.39506 8.91358 7.39717 8.91358 7.39928 8.91569C7.42208 8.91865 7.44487 8.92287 7.46977 8.92498C9.17458 9.17908 10.0453 9.65941 10.4683 9.99919C10.0453 10.3398 9.175 10.8206 7.46977 11.0742C7.44487 11.0768 7.42208 11.081 7.39928 11.0831C7.39717 11.0848 7.39506 11.0848 7.39295 11.0856L7.39337 11.0856C7.11986 11.1367 6.84382 11.2355 6.58043 11.3849C5.98402 11.7276 5.57924 12.2603 5.42602 12.8217C5.30488 13.2687 5.34161 13.7326 5.57164 14.134C6.0887 15.0376 7.37776 15.2719 8.45281 14.6569ZM7.08356 7.73469C6.74462 7.54053 6.48926 7.23283 6.40189 6.91247C6.36306 6.7698 6.33942 6.56045 6.44959 6.3684C6.68385 5.95897 7.37227 5.89186 7.95053 6.22235C8.29326 6.41989 8.54272 6.71915 8.63178 7.04542C8.67019 7.18682 8.6934 7.39618 8.58408 7.58907C8.34898 7.99892 7.66224 8.06561 7.08356 7.73469ZM6.44959 13.6313C6.339 13.4392 6.36306 13.2307 6.40189 13.088C6.48926 12.7672 6.74462 12.46 7.08356 12.2654C7.66224 11.9349 8.34898 12.0016 8.58408 12.4114C8.69382 12.6043 8.67019 12.8137 8.63178 12.9555C8.54272 13.2809 8.29326 13.581 7.95053 13.7773C7.37227 14.1078 6.68385 14.0411 6.44959 13.6313Z" fill="#1D6295"/>
</svg>
