<svg width="19" height="18" viewBox="0 0 19 18" fill="none" xmlns="http://www.w3.org/2000/svg">
<path d="M9.43311 0C4.45906 0 0.433105 4.02528 0.433105 9C0.433105 13.974 4.45839 18 9.43311 18C14.4072 18 18.4331 13.9747 18.4331 9C18.4331 4.02599 14.4078 0 9.43311 0ZM16.9945 8.29688H12.8958C12.8574 5.96707 12.6292 3.7428 12.248 1.9434C14.7915 2.95745 16.7261 5.35444 16.9945 8.29688ZM1.87173 9.70312H5.97039C6.00882 12.0329 6.23702 14.2572 6.61825 16.0566C4.07389 15.0422 2.14005 12.6447 1.87173 9.70312ZM5.97039 8.29688H1.87173C2.1397 5.35922 4.07016 2.95928 6.61825 1.9434C6.23705 3.7428 6.00882 5.96707 5.97039 8.29688ZM10.704 16.4881C10.288 16.5579 9.86335 16.5938 9.43311 16.5938C9.00286 16.5938 8.57818 16.5579 8.16221 16.4881C7.69948 14.6849 7.42016 12.2692 7.37678 9.70312H11.4894C11.446 12.2692 11.1667 14.6849 10.704 16.4881ZM7.37678 8.29688C7.42016 5.73082 7.69948 3.31513 8.16221 1.51186C8.57818 1.44214 9.00286 1.40625 9.43311 1.40625C9.86335 1.40625 10.288 1.44214 10.704 1.51186C11.1667 3.31513 11.446 5.73082 11.4894 8.29688H7.37678ZM12.248 16.0566C12.6292 14.2572 12.8574 12.0329 12.8958 9.70312H16.9945C16.7265 12.6408 14.7961 15.0407 12.248 16.0566Z" fill="#677C95"/>
</svg>
