<svg width="24" height="24" viewBox="0 0 24 24" fill="none" xmlns="http://www.w3.org/2000/svg">
<path d="M16.4449 20V18.2222C16.4449 17.2792 16.0703 16.3749 15.4035 15.7081C14.7367 15.0413 13.8323 14.6667 12.8893 14.6667H5.77821C4.83522 14.6667 3.93085 15.0413 3.26405 15.7081C2.59726 16.3749 2.22266 17.2792 2.22266 18.2222V20" stroke="white" stroke-width="1.5" stroke-linecap="round" stroke-linejoin="round"/>
<path d="M9.33388 11.1111C11.2976 11.1111 12.8894 9.51923 12.8894 7.55556C12.8894 5.59188 11.2976 4 9.33388 4C7.3702 4 5.77832 5.59188 5.77832 7.55556C5.77832 9.51923 7.3702 11.1111 9.33388 11.1111Z" stroke="white" stroke-width="1.5" stroke-linecap="round" stroke-linejoin="round"/>
<path d="M21.778 20V18.2222C21.7774 17.4344 21.5152 16.6691 21.0325 16.0465C20.5499 15.4239 19.8741 14.9792 19.1113 14.7822" stroke="white" stroke-width="1.5" stroke-linecap="round" stroke-linejoin="round"/>
<path d="M15.5557 4.11557C16.3205 4.31139 16.9984 4.75619 17.4825 5.37985C17.9665 6.0035 18.2293 6.77053 18.2293 7.56001C18.2293 8.3495 17.9665 9.11653 17.4825 9.74018C16.9984 10.3638 16.3205 10.8086 15.5557 11.0045" stroke="white" stroke-width="1.5" stroke-linecap="round" stroke-linejoin="round"/>
</svg>
