<svg width="15" height="14" viewBox="0 0 15 14" fill="none" xmlns="http://www.w3.org/2000/svg">
<path d="M9.24876 0.246674C8.05802 0.490305 7.10623 1.38585 6.79134 2.56096C6.79093 2.56279 6.79043 2.56462 6.79002 2.56634L5.76149 6.63437L5.38051 6.73649C5.32732 6.53773 5.24773 6.34465 5.14236 6.15878C4.22794 4.54585 1.85061 4.6432 1.02632 6.30171C0.617733 7.12397 0.7229 8.0927 1.32426 8.85892C1.8637 9.54627 2.80259 9.84857 3.72646 9.60098L5.0842 9.23716L4.72038 10.5949C4.47563 11.5083 4.76687 12.4512 5.46243 12.9971C6.22622 13.5965 7.19475 13.7049 8.01965 13.295C9.67958 12.4701 9.77379 10.0924 8.16247 9.17899C7.97671 9.07362 7.78353 8.99404 7.58487 8.94084L7.68658 8.56129L11.7595 7.53134C11.7612 7.53093 11.763 7.53042 11.7648 7.53002C12.9388 7.21543 13.8352 6.26446 14.0791 5.0726C14.1061 4.94093 14.0632 4.8046 13.9659 4.71202C13.8684 4.61934 13.7302 4.58341 13.6 4.61701L8.35433 5.96834L9.70445 0.725815C9.73795 0.595676 9.70202 0.457415 9.60944 0.359963C9.51676 0.26251 9.38043 0.219773 9.24876 0.246674ZM3.52466 8.84786C2.92279 9.00916 2.28498 8.82014 1.9376 8.37755C1.52648 7.85374 1.44679 7.20741 1.72453 6.64858C2.26397 5.5629 3.8495 5.45905 4.46426 6.54331C4.59095 6.76684 4.66292 7.00388 4.67794 7.24802C4.69307 7.49378 4.93 7.66432 5.16784 7.60057L5.54263 7.50007C5.51959 7.58879 5.62617 7.17878 5.31717 8.3676L3.52466 8.84786ZM7.77804 9.8571C8.86007 10.4705 8.76038 12.0563 7.67267 12.5968C7.11385 12.8746 6.46751 12.7949 5.94381 12.3838C5.50111 12.0364 5.31209 11.3986 5.4734 10.7966L6.38133 7.408C6.43696 7.20071 6.65085 7.07666 6.85874 7.13239C7.03984 7.18092 7.15689 7.34993 7.14704 7.53012C6.87265 8.5954 6.97487 8.20518 6.72079 9.15351C6.65724 9.39065 6.82667 9.62829 7.07334 9.64341C7.31738 9.65844 7.55451 9.73031 7.77804 9.8571ZM13.0906 5.55316C12.7821 6.14873 12.2369 6.59549 11.5656 6.77618L7.91164 7.70015C7.91326 7.69041 7.91448 7.68066 7.9159 7.67092L8.13232 6.83049L13.0906 5.55316ZM7.40367 6.53367C7.29972 6.46495 7.1844 6.41257 7.06055 6.37937C6.91894 6.3414 6.77642 6.33156 6.63856 6.34587L7.54517 2.76023C7.72577 2.08893 8.17263 1.5436 8.7682 1.2351C8.72719 1.39468 7.45026 6.35308 7.40367 6.53367Z" fill="white"/>
</svg>
