<svg width="21" height="21" viewBox="0 0 21 21" fill="none" xmlns="http://www.w3.org/2000/svg">
<g opacity="0.6" clip-path="url(#clip0)">
<path d="M13.2204 6.97396C12.9153 6.66884 12.4206 6.66884 12.1156 6.97396C11.8105 7.27907 11.8104 7.77376 12.1156 8.07884L14.6881 10.6514L12.1156 13.2239C11.8104 13.529 11.8104 14.0237 12.1156 14.3288C12.4206 14.6339 12.9153 14.6339 13.2204 14.3288L16.3454 11.2038C16.6506 10.8987 16.6506 10.404 16.3454 10.099L13.2204 6.97396Z" fill="#677C95"/>
<path d="M6.74155 10.6514L9.31413 8.07882C9.61925 7.77371 9.61925 7.27902 9.31413 6.97394C9.00901 6.66886 8.51432 6.66882 8.20925 6.97394L5.08425 10.0989C4.77913 10.4041 4.77913 10.8987 5.08425 11.2038L8.20925 14.3288C8.51428 14.6339 9.00905 14.6339 9.31417 14.3288C9.61928 14.0237 9.61928 13.529 9.31417 13.2239L6.74155 10.6514Z" fill="#677C95"/>
<path d="M18.3711 2.05762H3.05859C1.76625 2.05762 0.714844 3.10902 0.714844 4.40137V16.9014C0.714844 18.1937 1.76625 19.2451 3.05859 19.2451H18.3711C19.6634 19.2451 20.7148 18.1937 20.7148 16.9014V4.40137C20.7148 3.10902 19.6634 2.05762 18.3711 2.05762ZM19.1523 16.9014C19.1523 17.3321 18.8019 17.6826 18.3711 17.6826H3.05859C2.62781 17.6826 2.27734 17.3321 2.27734 16.9014V4.40137C2.27734 3.97059 2.62781 3.62012 3.05859 3.62012H18.3711C18.8019 3.62012 19.1523 3.97059 19.1523 4.40137V16.9014Z" fill="#677C95"/>
</g>
<defs>
<clipPath id="clip0">
<rect width="20" height="20" fill="white" transform="translate(0.714844 0.651367)"/>
</clipPath>
</defs>
</svg>
