<svg width="18" height="21" viewBox="0 0 18 21" fill="none" xmlns="http://www.w3.org/2000/svg">
<path d="M16.2881 16.3696H14.107V1.67676C14.107 1.24524 13.7573 0.895508 13.3257 0.895508H0.819336C0.387817 0.895508 0.0380859 1.24524 0.0380859 1.67676V17.1508C0.0380859 19.2157 1.71747 20.8955 3.78168 20.8955H13.3257C15.39 20.8955 17.0693 19.2157 17.0693 17.1508C17.0693 16.7195 16.7196 16.3696 16.2881 16.3696ZM5.96277 17.1508C5.96277 18.3542 4.98438 19.333 3.78168 19.333C2.57898 19.333 1.60059 18.3542 1.60059 17.1508V2.45801H12.5445V16.3696H6.74402C6.3125 16.3696 5.96277 16.7195 5.96277 17.1508ZM13.3257 19.333H6.8223C7.11893 18.9206 7.33392 18.4457 7.44333 17.9321H15.3623C15.0475 18.7506 14.2533 19.333 13.3257 19.333ZM11.3694 5.54395C11.3694 5.97546 11.0197 6.3252 10.5882 6.3252H3.55692C3.1254 6.3252 2.77567 5.97546 2.77567 5.54395C2.77567 5.11243 3.1254 4.7627 3.55692 4.7627H10.5882C11.0197 4.7627 11.3694 5.11243 11.3694 5.54395ZM11.3694 9.41113C11.3694 9.84265 11.0197 10.1924 10.5882 10.1924H3.55692C3.1254 10.1924 2.77567 9.84265 2.77567 9.41113C2.77567 8.97961 3.1254 8.62988 3.55692 8.62988H10.5882C11.0197 8.62988 11.3694 8.97961 11.3694 9.41113ZM11.3694 13.2783C11.3694 13.7098 11.0197 14.0596 10.5882 14.0596H3.55692C3.1254 14.0596 2.77567 13.7098 2.77567 13.2783C2.77567 12.8468 3.1254 12.4971 3.55692 12.4971H10.5882C11.0197 12.4971 11.3694 12.8468 11.3694 13.2783Z" fill="#15466B"/>
</svg>
