<svg width="27" height="26" viewBox="0 0 27 26" fill="none" xmlns="http://www.w3.org/2000/svg">
<g clip-path="url(#clip0)">
<path d="M16.6514 3.32797L13.5365 0.213105C13.3953 0.0719045 13.207 -0.000386871 13.0123 3.58857e-05C12.814 -0.00186652 12.6215 0.0719045 12.4803 0.213105L9.42967 3.26372C9.14389 3.5495 9.14389 4.01411 9.42967 4.29968L9.82304 4.69306C10.0989 4.9689 10.5804 4.9689 10.8565 4.69306L12.0243 3.52265V7.82357C12.0243 7.83667 12.0319 7.84745 12.0343 7.85971C12.066 8.23449 12.3803 8.53105 12.7635 8.53105H13.3194C13.7234 8.53105 14.0555 8.20299 14.0555 7.79905V7.3188C14.0555 7.31668 14.0555 7.3152 14.0555 7.31351V3.58649L15.2237 4.7571C15.5095 5.04289 15.9731 5.04289 16.2587 4.7571L16.6514 4.36415C16.9372 4.07816 16.9372 3.61334 16.6514 3.32797Z" fill="#677C95"/>
<path d="M16.651 21.6365L16.2578 21.2425C15.982 20.9662 15.5002 20.9662 15.224 21.2425L14.0557 22.4131V18.7026C14.0557 18.7005 14.0557 18.6992 14.0557 18.6973V18.217C14.0557 17.8129 13.7234 17.4688 13.3199 17.4688H12.7635C12.3807 17.4688 12.0664 17.7729 12.0345 18.1481C12.0322 18.1606 12.0246 18.1796 12.0246 18.1925V22.4774L10.8567 21.307C10.5806 21.0309 10.0981 21.0309 9.82201 21.307L9.42884 21.7003C9.14348 21.9859 9.14391 22.4507 9.42969 22.7365L12.4805 25.7869C12.6181 25.9249 12.8018 26 12.9914 26H13.0189C13.2153 26 13.3985 25.9251 13.5363 25.7869L16.651 22.6722C16.9368 22.3867 16.9368 21.9221 16.651 21.6365Z" fill="#677C95"/>
<path d="M7.82154 11.9842H7.75898H7.33897C7.33749 11.9842 7.33601 11.9842 7.33432 11.9842H3.64154L4.81215 10.8199C4.95018 10.6821 5.02607 10.5012 5.02607 10.3052C5.02607 10.1091 4.95018 9.92664 4.81215 9.78903L4.41878 9.3965C4.13299 9.11072 3.66817 9.11114 3.38281 9.39692L0.267942 12.5116C0.126741 12.6526 0.0512789 12.8418 0.0550837 13.0358C0.0510675 13.2377 0.126741 13.4266 0.267942 13.5678L3.31855 16.6187C3.46144 16.7616 3.64894 16.833 3.83664 16.833C4.02434 16.833 4.21184 16.7616 4.35473 16.6187L4.74789 16.2255C4.88592 16.0877 4.96202 15.9036 4.96202 15.7076C4.96202 15.5115 4.88613 15.3255 4.74789 15.1879L3.5777 14.0155H7.84374C7.85663 14.0155 7.87777 14.0124 7.89003 14.0101C8.26502 13.9783 8.5713 13.6683 8.5713 13.2852V12.7285C8.5713 12.3249 8.22549 11.9842 7.82154 11.9842Z" fill="#677C95"/>
<path d="M25.8119 12.5118L22.6971 9.39732C22.4115 9.11154 21.9467 9.11154 21.6611 9.39732L21.2681 9.7907C21.1301 9.9283 21.054 10.1124 21.054 10.3084C21.054 10.5045 21.1299 10.6821 21.2681 10.8199L22.4385 11.9842H18.7221C18.7202 11.9842 18.7187 11.9842 18.717 11.9842H18.237C17.833 11.9842 17.5088 12.3247 17.5088 12.7284V13.2852C17.5088 13.6682 17.8028 13.9779 18.178 14.0098C18.1905 14.0124 18.1996 14.0155 18.2123 14.0155H22.5026L21.3318 15.1876C21.194 15.3252 21.1179 15.5108 21.1179 15.7063C21.1179 15.9027 21.1937 16.0872 21.3318 16.2251L21.7254 16.6184C21.868 16.7613 22.0555 16.833 22.2432 16.833C22.4309 16.833 22.6182 16.7615 22.7611 16.6187L25.8121 13.5678C25.9529 13.427 26.0284 13.2379 26.025 13.0436C26.0282 12.8417 25.9527 12.6526 25.8119 12.5118Z" fill="#677C95"/>
<path d="M13.0405 10.9674C11.92 10.9674 11.0083 11.8791 11.0083 12.9998C11.0083 14.1203 11.92 15.0322 13.0405 15.0322C14.161 15.0322 15.0729 14.1203 15.0729 12.9998C15.0729 11.8791 14.161 10.9674 13.0405 10.9674Z" fill="#677C95"/>
</g>
<defs>
<clipPath id="clip0">
<rect width="26" height="26" fill="white" transform="translate(0.0400391)"/>
</clipPath>
</defs>
</svg>
