<svg width="21" height="21" viewBox="0 0 21 21" fill="none" xmlns="http://www.w3.org/2000/svg">
<g opacity="0.6" clip-path="url(#clip0)">
<path d="M20.1009 15.3179C19.7484 17.4096 18.2043 19.0208 16.2588 19.327C12.3994 19.9344 8.52446 19.9224 4.74122 19.327C2.79567 19.0207 1.25165 17.4096 0.899111 15.3179C0.366963 12.1603 0.366963 8.95827 0.899111 5.80073C1.25165 3.70897 2.79567 2.0978 4.74122 1.79163C8.56247 1.19022 12.4375 1.19022 16.2588 1.79163C18.2043 2.09784 19.7484 3.70897 20.1009 5.80073C20.6331 8.95831 20.6331 12.1603 20.1009 15.3179ZM18.5599 6.0605C18.3191 4.63218 17.2968 3.5371 16.0158 3.33546C12.3559 2.7594 8.64403 2.7594 4.98423 3.33546C3.70325 3.53706 2.68091 4.63218 2.44021 6.0605C1.93708 9.04569 1.93708 12.0729 2.44021 15.0581C2.68091 16.4864 3.70329 17.5815 4.98423 17.7832C8.64423 18.3592 12.3558 18.3592 16.0159 17.7832C17.2968 17.5815 18.3192 16.4864 18.5599 15.0581C19.0629 12.0729 19.0629 9.04569 18.5599 6.0605Z" fill="#677C95"/>
<path d="M13.6744 9.88277L8.88836 7.11954C8.64669 6.98001 8.34883 6.98001 8.10712 7.11954C7.8654 7.25907 7.71649 7.51696 7.71649 7.7961V13.3225C7.71649 13.6016 7.8654 13.8596 8.10712 13.9991C8.34887 14.1387 8.64657 14.1387 8.88836 13.9991L13.6744 11.2359C13.9161 11.0963 14.065 10.8384 14.065 10.5593C14.065 10.2802 13.9161 10.0223 13.6744 9.88277ZM9.27899 11.9694V9.14918L11.7213 10.5593L9.27899 11.9694Z" fill="#677C95"/>
</g>
<defs>
<clipPath id="clip0">
<rect width="20" height="20" fill="white" transform="translate(0.5 0.559326)"/>
</clipPath>
</defs>
</svg>
