<svg width="19" height="5" viewBox="0 0 19 5" fill="none" xmlns="http://www.w3.org/2000/svg">
<path d="M3.34839 1.88776H7.50681C7.89513 1.88776 8.20993 2.20256 8.20993 2.59088C8.20993 2.97921 7.89513 3.29401 7.50681 3.29401L3.34839 3.29401C2.96006 3.29401 2.64526 2.97921 2.64526 2.59088C2.64526 2.20256 2.96006 1.88776 3.34839 1.88776Z" fill="#677C95"/>
<path d="M10.7942 1.88776H14.9526C15.3409 1.88776 15.6557 2.20256 15.6557 2.59088C15.6557 2.97921 15.3409 3.29401 14.9526 3.29401L10.7942 3.29401C10.4059 3.29401 10.0911 2.97921 10.0911 2.59088C10.0911 2.20256 10.4059 1.88776 10.7942 1.88776Z" fill="#677C95"/>
<path fill-rule="evenodd" clip-rule="evenodd" d="M1.85872 4.34219C2.82593 4.34219 3.61001 3.55811 3.61001 2.5909C3.61001 1.62368 2.82593 0.8396 1.85872 0.8396C0.891504 0.8396 0.107422 1.62368 0.107422 2.5909C0.107422 3.55811 0.891504 4.34219 1.85872 4.34219ZM1.85872 3.12224C2.15217 3.12224 2.39006 2.88435 2.39006 2.5909C2.39006 2.29744 2.15217 2.05955 1.85872 2.05955C1.56527 2.05955 1.32737 2.29744 1.32737 2.5909C1.32737 2.88435 1.56527 3.12224 1.85872 3.12224Z" fill="#677C95"/>
<path fill-rule="evenodd" clip-rule="evenodd" d="M9.08845 4.34201C10.0557 4.34201 10.8397 3.55793 10.8397 2.59071C10.8397 1.6235 10.0557 0.839417 9.08845 0.839417C8.12124 0.839417 7.33716 1.6235 7.33716 2.59071C7.33716 3.55793 8.12124 4.34201 9.08845 4.34201ZM9.08845 3.12205C9.38191 3.12205 9.6198 2.88416 9.6198 2.59071C9.6198 2.29726 9.38191 2.05937 9.08845 2.05937C8.795 2.05937 8.55711 2.29726 8.55711 2.59071C8.55711 2.88416 8.795 3.12205 9.08845 3.12205Z" fill="#677C95"/>
<path fill-rule="evenodd" clip-rule="evenodd" d="M16.3182 4.34201C17.2854 4.34201 18.0695 3.55793 18.0695 2.59071C18.0695 1.6235 17.2854 0.839417 16.3182 0.839417C15.351 0.839417 14.5669 1.6235 14.5669 2.59071C14.5669 3.55793 15.351 4.34201 16.3182 4.34201ZM16.3182 3.12205C16.6116 3.12205 16.8495 2.88416 16.8495 2.59071C16.8495 2.29726 16.6116 2.05937 16.3182 2.05937C16.0247 2.05937 15.7868 2.29726 15.7868 2.59071C15.7868 2.88416 16.0247 3.12205 16.3182 3.12205Z" fill="#677C95"/>
</svg>
