<svg width="19" height="15" viewBox="0 0 19 15" fill="none" xmlns="http://www.w3.org/2000/svg">
<path d="M15.998 0.210449H2.2168C1.05369 0.210449 0.107422 1.15671 0.107422 2.31982V12.5698C0.107422 13.7329 1.05369 14.6792 2.2168 14.6792H15.998C17.1612 14.6792 18.1074 13.7329 18.1074 12.5698V2.31982C18.1074 1.15671 17.1612 0.210449 15.998 0.210449ZM16.7012 12.5698C16.7012 12.9575 16.3857 13.2729 15.998 13.2729H2.2168C1.82909 13.2729 1.51367 12.9575 1.51367 12.5698V2.31982C1.51367 1.93212 1.82909 1.6167 2.2168 1.6167H15.998C16.3857 1.6167 16.7012 1.93212 16.7012 2.31982V12.5698Z" fill="#677C95"/>
<path d="M3.84668 3.1528H8.36468C8.753 3.1528 9.0678 3.4676 9.0678 3.85593C9.0678 4.24425 8.753 4.55905 8.36467 4.55905H3.84668C3.45835 4.55905 3.14355 4.24425 3.14355 3.85593C3.14355 3.4676 3.45836 3.1528 3.84668 3.1528Z" fill="#677C95"/>
</svg>
